<?xml version="1.0" encoding="UTF-8"?>
<svg version="1.1" xmlns="http://www.w3.org/2000/svg" width="1024" height="1024">
<path d="M0 0 C15.84 0 31.68 0 48 0 C48 5.28 48 10.56 48 16 C58.56 16 69.12 16 80 16 C80 21.28 80 26.56 80 32 C111.68 32 143.36 32 176 32 C176 37.28 176 42.56 176 48 C191.84 48 207.68 48 224 48 C224 53.28 224 58.56 224 64 C229.28 64 234.56 64 240 64 C240 69.28 240 74.56 240 80 C245.28 80 250.56 80 256 80 C256 85.28 256 90.56 256 96 C261.28 96 266.56 96 272 96 C272 101.28 272 106.56 272 112 C277.28 112 282.56 112 288 112 C288 117.28 288 122.56 288 128 C293.28 128 298.56 128 304 128 C304 138.56 304 149.12 304 160 C309.28 160 314.56 160 320 160 C320 165.28 320 170.56 320 176 C325.28 176 330.56 176 336 176 C336 181.28 336 186.56 336 192 C341.28 192 346.56 192 352 192 C352 202.56 352 213.12 352 224 C357.28 224 362.56 224 368 224 C368 234.56 368 245.12 368 256 C373.28 256 378.56 256 384 256 C384 303.52 384 351.04 384 400 C378.72 400 373.44 400 368 400 C368 410.56 368 421.12 368 432 C362.72 432 357.44 432 352 432 C352 442.56 352 453.12 352 464 C346.72 464 341.44 464 336 464 C336 469.28 336 474.56 336 480 C330.72 480 325.44 480 320 480 C320 485.28 320 490.56 320 496 C314.72 496 309.44 496 304 496 C304 501.28 304 506.56 304 512 C272.32 512 240.64 512 208 512 C208 506.72 208 501.44 208 496 C197.44 496 186.88 496 176 496 C176 501.28 176 506.56 176 512 C165.44 512 154.88 512 144 512 C144 517.28 144 522.56 144 528 C138.72 528 133.44 528 128 528 C128 533.28 128 538.56 128 544 C75.2 544 22.4 544 -32 544 C-32 538.72 -32 533.44 -32 528 C-42.56 528 -53.12 528 -64 528 C-64 522.72 -64 517.44 -64 512 C-90.4 512 -116.8 512 -144 512 C-144 517.28 -144 522.56 -144 528 C-196.8 528 -249.6 528 -304 528 C-304 522.72 -304 517.44 -304 512 C-314.56 512 -325.12 512 -336 512 C-336 506.72 -336 501.44 -336 496 C-346.56 496 -357.12 496 -368 496 C-368 490.72 -368 485.44 -368 480 C-378.56 480 -389.12 480 -400 480 C-400 474.72 -400 469.44 -400 464 C-405.28 464 -410.56 464 -416 464 C-416 453.44 -416 442.88 -416 432 C-421.28 432 -426.56 432 -432 432 C-432 421.44 -432 410.88 -432 400 C-437.28 400 -442.56 400 -448 400 C-448 363.04 -448 326.08 -448 288 C-442.72 288 -437.44 288 -432 288 C-432 266.88 -432 245.76 -432 224 C-426.72 224 -421.44 224 -416 224 C-416 218.72 -416 213.44 -416 208 C-410.72 208 -405.44 208 -400 208 C-400 197.44 -400 186.88 -400 176 C-394.72 176 -389.44 176 -384 176 C-384 170.72 -384 165.44 -384 160 C-378.72 160 -373.44 160 -368 160 C-368 154.72 -368 149.44 -368 144 C-357.44 144 -346.88 144 -336 144 C-336 138.72 -336 133.44 -336 128 C-325.44 128 -314.88 128 -304 128 C-304 122.72 -304 117.44 -304 112 C-298.72 112 -293.44 112 -288 112 C-288 106.72 -288 101.44 -288 96 C-282.72 96 -277.44 96 -272 96 C-272 90.72 -272 85.44 -272 80 C-261.44 80 -250.88 80 -240 80 C-240 74.72 -240 69.44 -240 64 C-229.44 64 -218.88 64 -208 64 C-208 58.72 -208 53.44 -208 48 C-202.72 48 -197.44 48 -192 48 C-192 42.72 -192 37.44 -192 32 C-160.32 32 -128.64 32 -96 32 C-96 26.72 -96 21.44 -96 16 C-64.32 16 -32.64 16 0 16 C0 10.72 0 5.44 0 0 Z " fill="#438F38" transform="translate(560,192)"/>
<path d="M0 0 C5.28 0 10.56 0 16 0 C16 10.56 16 21.12 16 32 C21.28 32 26.56 32 32 32 C32 79.52 32 127.04 32 176 C26.72 176 21.44 176 16 176 C16 186.56 16 197.12 16 208 C10.72 208 5.44 208 0 208 C0 218.56 0 229.12 0 240 C-5.28 240 -10.56 240 -16 240 C-16 245.28 -16 250.56 -16 256 C-21.28 256 -26.56 256 -32 256 C-32 261.28 -32 266.56 -32 272 C-37.28 272 -42.56 272 -48 272 C-48 277.28 -48 282.56 -48 288 C-79.68 288 -111.36 288 -144 288 C-144 282.72 -144 277.44 -144 272 C-154.56 272 -165.12 272 -176 272 C-176 277.28 -176 282.56 -176 288 C-186.56 288 -197.12 288 -208 288 C-208 293.28 -208 298.56 -208 304 C-213.28 304 -218.56 304 -224 304 C-224 309.28 -224 314.56 -224 320 C-276.8 320 -329.6 320 -384 320 C-384 314.72 -384 309.44 -384 304 C-394.56 304 -405.12 304 -416 304 C-416 298.72 -416 293.44 -416 288 C-442.4 288 -468.8 288 -496 288 C-496 293.28 -496 298.56 -496 304 C-548.8 304 -601.6 304 -656 304 C-656 298.72 -656 293.44 -656 288 C-666.56 288 -677.12 288 -688 288 C-688 282.72 -688 277.44 -688 272 C-698.56 272 -709.12 272 -720 272 C-720 266.72 -720 261.44 -720 256 C-730.56 256 -741.12 256 -752 256 C-752 250.72 -752 245.44 -752 240 C-757.28 240 -762.56 240 -768 240 C-768 229.44 -768 218.88 -768 208 C-762.72 208 -757.44 208 -752 208 C-752 213.28 -752 218.56 -752 224 C-725.6 224 -699.2 224 -672 224 C-672 229.28 -672 234.56 -672 240 C-529.44 240 -386.88 240 -240 240 C-240 234.72 -240 229.44 -240 224 C-224.16 224 -208.32 224 -192 224 C-192 218.72 -192 213.44 -192 208 C-176.16 208 -160.32 208 -144 208 C-144 202.72 -144 197.44 -144 192 C-138.72 192 -133.44 192 -128 192 C-128 186.72 -128 181.44 -128 176 C-122.72 176 -117.44 176 -112 176 C-112 170.72 -112 165.44 -112 160 C-106.72 160 -101.44 160 -96 160 C-96 154.72 -96 149.44 -96 144 C-90.72 144 -85.44 144 -80 144 C-80 138.72 -80 133.44 -80 128 C-74.72 128 -69.44 128 -64 128 C-64 122.72 -64 117.44 -64 112 C-58.72 112 -53.44 112 -48 112 C-48 106.72 -48 101.44 -48 96 C-42.72 96 -37.44 96 -32 96 C-32 74.88 -32 53.76 -32 32 C-26.72 32 -21.44 32 -16 32 C-16 26.72 -16 21.44 -16 16 C-10.72 16 -5.44 16 0 16 C0 10.72 0 5.44 0 0 Z " fill="#244D1E" transform="translate(912,416)"/>
<path d="M0 0 C5.28 0 10.56 0 16 0 C16 5.28 16 10.56 16 16 C21.28 16 26.56 16 32 16 C32 31.84 32 47.68 32 64 C26.72 64 21.44 64 16 64 C16 69.28 16 74.56 16 80 C10.72 80 5.44 80 0 80 C0 101.12 0 122.24 0 144 C-5.28 144 -10.56 144 -16 144 C-16 149.28 -16 154.56 -16 160 C-21.28 160 -26.56 160 -32 160 C-32 165.28 -32 170.56 -32 176 C-37.28 176 -42.56 176 -48 176 C-48 181.28 -48 186.56 -48 192 C-53.28 192 -58.56 192 -64 192 C-64 197.28 -64 202.56 -64 208 C-69.28 208 -74.56 208 -80 208 C-80 213.28 -80 218.56 -80 224 C-85.28 224 -90.56 224 -96 224 C-96 229.28 -96 234.56 -96 240 C-101.28 240 -106.56 240 -112 240 C-112 245.28 -112 250.56 -112 256 C-127.84 256 -143.68 256 -160 256 C-160 261.28 -160 266.56 -160 272 C-175.84 272 -191.68 272 -208 272 C-208 277.28 -208 282.56 -208 288 C-350.56 288 -493.12 288 -640 288 C-640 282.72 -640 277.44 -640 272 C-666.4 272 -692.8 272 -720 272 C-720 266.72 -720 261.44 -720 256 C-725.28 256 -730.56 256 -736 256 C-736 245.44 -736 234.88 -736 224 C-699.04 224 -662.08 224 -624 224 C-624 229.28 -624 234.56 -624 240 C-544.8 240 -465.6 240 -384 240 C-384 234.72 -384 229.44 -384 224 C-373.44 224 -362.88 224 -352 224 C-352 218.72 -352 213.44 -352 208 C-346.72 208 -341.44 208 -336 208 C-336 202.72 -336 197.44 -336 192 C-293.76 192 -251.52 192 -208 192 C-208 186.72 -208 181.44 -208 176 C-197.44 176 -186.88 176 -176 176 C-176 170.72 -176 165.44 -176 160 C-165.44 160 -154.88 160 -144 160 C-144 154.72 -144 149.44 -144 144 C-133.44 144 -122.88 144 -112 144 C-112 138.72 -112 133.44 -112 128 C-106.72 128 -101.44 128 -96 128 C-96 122.72 -96 117.44 -96 112 C-90.72 112 -85.44 112 -80 112 C-80 106.72 -80 101.44 -80 96 C-74.72 96 -69.44 96 -64 96 C-64 90.72 -64 85.44 -64 80 C-58.72 80 -53.44 80 -48 80 C-48 69.44 -48 58.88 -48 48 C-42.72 48 -37.44 48 -32 48 C-32 42.72 -32 37.44 -32 32 C-26.72 32 -21.44 32 -16 32 C-16 26.72 -16 21.44 -16 16 C-10.72 16 -5.44 16 0 16 C0 10.72 0 5.44 0 0 Z " fill="#39792F" transform="translate(880,368)"/>
<path d="M0 0 C26.4 0 52.8 0 80 0 C80 5.28 80 10.56 80 16 C85.28 16 90.56 16 96 16 C96 26.56 96 37.12 96 48 C90.72 48 85.44 48 80 48 C80 53.28 80 58.56 80 64 C74.72 64 69.44 64 64 64 C64 69.28 64 74.56 64 80 C53.44 80 42.88 80 32 80 C32 85.28 32 90.56 32 96 C21.44 96 10.88 96 0 96 C0 101.28 0 106.56 0 112 C-5.28 112 -10.56 112 -16 112 C-16 117.28 -16 122.56 -16 128 C-21.28 128 -26.56 128 -32 128 C-32 138.56 -32 149.12 -32 160 C-26.72 160 -21.44 160 -16 160 C-16 165.28 -16 170.56 -16 176 C-10.72 176 -5.44 176 0 176 C0 191.84 0 207.68 0 224 C-10.56 224 -21.12 224 -32 224 C-32 229.28 -32 234.56 -32 240 C-37.28 240 -42.56 240 -48 240 C-48 234.72 -48 229.44 -48 224 C-63.84 224 -79.68 224 -96 224 C-96 234.56 -96 245.12 -96 256 C-106.56 256 -117.12 256 -128 256 C-128 261.28 -128 266.56 -128 272 C-138.56 272 -149.12 272 -160 272 C-160 277.28 -160 282.56 -160 288 C-165.28 288 -170.56 288 -176 288 C-176 282.72 -176 277.44 -176 272 C-181.28 272 -186.56 272 -192 272 C-192 261.44 -192 250.88 -192 240 C-186.72 240 -181.44 240 -176 240 C-176 224.16 -176 208.32 -176 192 C-170.72 192 -165.44 192 -160 192 C-160 186.72 -160 181.44 -160 176 C-149.44 176 -138.88 176 -128 176 C-128 154.88 -128 133.76 -128 112 C-122.72 112 -117.44 112 -112 112 C-112 106.72 -112 101.44 -112 96 C-106.72 96 -101.44 96 -96 96 C-96 90.72 -96 85.44 -96 80 C-90.72 80 -85.44 80 -80 80 C-80 74.72 -80 69.44 -80 64 C-74.72 64 -69.44 64 -64 64 C-64 58.72 -64 53.44 -64 48 C-58.72 48 -53.44 48 -48 48 C-48 42.72 -48 37.44 -48 32 C-42.72 32 -37.44 32 -32 32 C-32 26.72 -32 21.44 -32 16 C-21.44 16 -10.88 16 0 16 C0 10.72 0 5.44 0 0 Z " fill="#4EA740" transform="translate(320,288)"/>
<path d="M0 0 C5.28 0 10.56 0 16 0 C16 10.56 16 21.12 16 32 C21.28 32 26.56 32 32 32 C32 37.28 32 42.56 32 48 C26.72 48 21.44 48 16 48 C16 58.56 16 69.12 16 80 C10.72 80 5.44 80 0 80 C0 90.56 0 101.12 0 112 C-5.28 112 -10.56 112 -16 112 C-16 117.28 -16 122.56 -16 128 C-21.28 128 -26.56 128 -32 128 C-32 133.28 -32 138.56 -32 144 C-37.28 144 -42.56 144 -48 144 C-48 154.56 -48 165.12 -48 176 C-53.28 176 -58.56 176 -64 176 C-64 181.28 -64 186.56 -64 192 C-69.28 192 -74.56 192 -80 192 C-80 197.28 -80 202.56 -80 208 C-85.28 208 -90.56 208 -96 208 C-96 213.28 -96 218.56 -96 224 C-101.28 224 -106.56 224 -112 224 C-112 229.28 -112 234.56 -112 240 C-138.4 240 -164.8 240 -192 240 C-192 245.28 -192 250.56 -192 256 C-202.56 256 -213.12 256 -224 256 C-224 261.28 -224 266.56 -224 272 C-282.08 272 -340.16 272 -400 272 C-400 266.72 -400 261.44 -400 256 C-495.04 256 -590.08 256 -688 256 C-688 250.72 -688 245.44 -688 240 C-703.84 240 -719.68 240 -736 240 C-736 234.72 -736 229.44 -736 224 C-714.88 224 -693.76 224 -672 224 C-672 229.28 -672 234.56 -672 240 C-529.44 240 -386.88 240 -240 240 C-240 234.72 -240 229.44 -240 224 C-224.16 224 -208.32 224 -192 224 C-192 218.72 -192 213.44 -192 208 C-176.16 208 -160.32 208 -144 208 C-144 202.72 -144 197.44 -144 192 C-138.72 192 -133.44 192 -128 192 C-128 186.72 -128 181.44 -128 176 C-122.72 176 -117.44 176 -112 176 C-112 170.72 -112 165.44 -112 160 C-106.72 160 -101.44 160 -96 160 C-96 154.72 -96 149.44 -96 144 C-90.72 144 -85.44 144 -80 144 C-80 138.72 -80 133.44 -80 128 C-74.72 128 -69.44 128 -64 128 C-64 122.72 -64 117.44 -64 112 C-58.72 112 -53.44 112 -48 112 C-48 106.72 -48 101.44 -48 96 C-42.72 96 -37.44 96 -32 96 C-32 74.88 -32 53.76 -32 32 C-26.72 32 -21.44 32 -16 32 C-16 26.72 -16 21.44 -16 16 C-10.72 16 -5.44 16 0 16 C0 10.72 0 5.44 0 0 Z " fill="#2E6327" transform="translate(912,416)"/>
<path d="M0 0 C26.4 0 52.8 0 80 0 C80 5.28 80 10.56 80 16 C111.68 16 143.36 16 176 16 C176 21.28 176 26.56 176 32 C181.28 32 186.56 32 192 32 C192 37.28 192 42.56 192 48 C218.4 48 244.8 48 272 48 C272 53.28 272 58.56 272 64 C282.56 64 293.12 64 304 64 C304 69.28 304 74.56 304 80 C309.28 80 314.56 80 320 80 C320 90.56 320 101.12 320 112 C314.72 112 309.44 112 304 112 C304 117.28 304 122.56 304 128 C282.88 128 261.76 128 240 128 C240 122.72 240 117.44 240 112 C218.88 112 197.76 112 176 112 C176 106.72 176 101.44 176 96 C160.16 96 144.32 96 128 96 C128 90.72 128 85.44 128 80 C85.76 80 43.52 80 0 80 C0 74.72 0 69.44 0 64 C-5.28 64 -10.56 64 -16 64 C-16 48.16 -16 32.32 -16 16 C-10.72 16 -5.44 16 0 16 C0 10.72 0 5.44 0 0 Z " fill="#4EA640" transform="translate(480,240)"/>
<path d="M0 0 C21.12 0 42.24 0 64 0 C64 5.28 64 10.56 64 16 C85.12 16 106.24 16 128 16 C128 21.28 128 26.56 128 32 C133.28 32 138.56 32 144 32 C144 37.28 144 42.56 144 48 C149.28 48 154.56 48 160 48 C160 53.28 160 58.56 160 64 C154.72 64 149.44 64 144 64 C144 69.28 144 74.56 144 80 C138.72 80 133.44 80 128 80 C128 85.28 128 90.56 128 96 C96.32 96 64.64 96 32 96 C32 106.56 32 117.12 32 128 C26.72 128 21.44 128 16 128 C16 133.28 16 138.56 16 144 C-5.12 144 -26.24 144 -48 144 C-48 138.72 -48 133.44 -48 128 C-53.28 128 -58.56 128 -64 128 C-64 122.72 -64 117.44 -64 112 C-69.28 112 -74.56 112 -80 112 C-80 90.88 -80 69.76 -80 48 C-74.72 48 -69.44 48 -64 48 C-64 42.72 -64 37.44 -64 32 C-58.72 32 -53.44 32 -48 32 C-48 26.72 -48 21.44 -48 16 C-32.16 16 -16.32 16 0 16 C0 10.72 0 5.44 0 0 Z " fill="#4EA640" transform="translate(480,368)"/>
<path d="M0 0 C10.56 0 21.12 0 32 0 C32 5.28 32 10.56 32 16 C26.72 16 21.44 16 16 16 C16 21.28 16 26.56 16 32 C10.72 32 5.44 32 0 32 C0 37.28 0 42.56 0 48 C-10.56 48 -21.12 48 -32 48 C-32 58.56 -32 69.12 -32 80 C-37.28 80 -42.56 80 -48 80 C-48 85.28 -48 90.56 -48 96 C-53.28 96 -58.56 96 -64 96 C-64 101.28 -64 106.56 -64 112 C-58.72 112 -53.44 112 -48 112 C-48 117.28 -48 122.56 -48 128 C-53.28 128 -58.56 128 -64 128 C-64 133.28 -64 138.56 -64 144 C-69.28 144 -74.56 144 -80 144 C-80 149.28 -80 154.56 -80 160 C-85.28 160 -90.56 160 -96 160 C-96 165.28 -96 170.56 -96 176 C-106.56 176 -117.12 176 -128 176 C-128 160.16 -128 144.32 -128 128 C-122.72 128 -117.44 128 -112 128 C-112 117.44 -112 106.88 -112 96 C-106.72 96 -101.44 96 -96 96 C-96 90.72 -96 85.44 -96 80 C-90.72 80 -85.44 80 -80 80 C-80 74.72 -80 69.44 -80 64 C-74.72 64 -69.44 64 -64 64 C-64 58.72 -64 53.44 -64 48 C-58.72 48 -53.44 48 -48 48 C-48 42.72 -48 37.44 -48 32 C-37.44 32 -26.88 32 -16 32 C-16 26.72 -16 21.44 -16 16 C-10.72 16 -5.44 16 0 16 C0 10.72 0 5.44 0 0 Z " fill="#58BC49" transform="translate(304,336)"/>
<path d="M0 0 C5.28 0 10.56 0 16 0 C16 10.56 16 21.12 16 32 C10.72 32 5.44 32 0 32 C0 37.28 0 42.56 0 48 C-31.68 48 -63.36 48 -96 48 C-96 58.56 -96 69.12 -96 80 C-101.28 80 -106.56 80 -112 80 C-112 85.28 -112 90.56 -112 96 C-138.4 96 -164.8 96 -192 96 C-192 90.72 -192 85.44 -192 80 C-170.88 80 -149.76 80 -128 80 C-128 74.72 -128 69.44 -128 64 C-122.72 64 -117.44 64 -112 64 C-112 53.44 -112 42.88 -112 32 C-80.32 32 -48.64 32 -16 32 C-16 26.72 -16 21.44 -16 16 C-10.72 16 -5.44 16 0 16 C0 10.72 0 5.44 0 0 Z " fill="#39792F" transform="translate(624,432)"/>
<path d="M0 0 C42.24 0 84.48 0 128 0 C128 5.28 128 10.56 128 16 C143.84 16 159.68 16 176 16 C176 21.28 176 26.56 176 32 C197.12 32 218.24 32 240 32 C240 37.28 240 42.56 240 48 C213.6 48 187.2 48 160 48 C160 42.72 160 37.44 160 32 C144.16 32 128.32 32 112 32 C112 26.72 112 21.44 112 16 C75.04 16 38.08 16 0 16 C0 10.72 0 5.44 0 0 Z " fill="#39792F" transform="translate(480,320)"/>
<path d="M0 0 C5.28 0 10.56 0 16 0 C16 10.56 16 21.12 16 32 C10.72 32 5.44 32 0 32 C0 37.28 0 42.56 0 48 C-10.56 48 -21.12 48 -32 48 C-32 53.28 -32 58.56 -32 64 C-42.56 64 -53.12 64 -64 64 C-64 69.28 -64 74.56 -64 80 C-69.28 80 -74.56 80 -80 80 C-80 85.28 -80 90.56 -80 96 C-90.56 96 -101.12 96 -112 96 C-112 90.72 -112 85.44 -112 80 C-106.72 80 -101.44 80 -96 80 C-96 74.72 -96 69.44 -96 64 C-90.72 64 -85.44 64 -80 64 C-80 58.72 -80 53.44 -80 48 C-69.44 48 -58.88 48 -48 48 C-48 42.72 -48 37.44 -48 32 C-37.44 32 -26.88 32 -16 32 C-16 26.72 -16 21.44 -16 16 C-10.72 16 -5.44 16 0 16 C0 10.72 0 5.44 0 0 Z " fill="#39792F" transform="translate(400,336)"/>
<path d="M0 0 C15.84 0 31.68 0 48 0 C48 5.28 48 10.56 48 16 C53.28 16 58.56 16 64 16 C64 10.72 64 5.44 64 0 C74.56 0 85.12 0 96 0 C96 5.28 96 10.56 96 16 C90.72 16 85.44 16 80 16 C80 21.28 80 26.56 80 32 C64.16 32 48.32 32 32 32 C32 26.72 32 21.44 32 16 C26.72 16 21.44 16 16 16 C16 21.28 16 26.56 16 32 C10.72 32 5.44 32 0 32 C0 21.44 0 10.88 0 0 Z " fill="#39792F" transform="translate(224,512)"/>
<path d="M0 0 C21.12 0 42.24 0 64 0 C64 5.28 64 10.56 64 16 C48.16 16 32.32 16 16 16 C16 21.28 16 26.56 16 32 C5.44 32 -5.12 32 -16 32 C-16 37.28 -16 42.56 -16 48 C-26.56 48 -37.12 48 -48 48 C-48 42.72 -48 37.44 -48 32 C-42.72 32 -37.44 32 -32 32 C-32 26.72 -32 21.44 -32 16 C-21.44 16 -10.88 16 0 16 C0 10.72 0 5.44 0 0 Z " fill="#6DE85A" transform="translate(480,400)"/>
<path d="M0 0 C15.84 0 31.68 0 48 0 C48 5.28 48 10.56 48 16 C37.44 16 26.88 16 16 16 C16 21.28 16 26.56 16 32 C-5.12 32 -26.24 32 -48 32 C-48 26.72 -48 21.44 -48 16 C-32.16 16 -16.32 16 0 16 C0 10.72 0 5.44 0 0 Z " fill="#58BC49" transform="translate(544,400)"/>
<path d="M0 0 C10.56 0 21.12 0 32 0 C32 5.28 32 10.56 32 16 C26.72 16 21.44 16 16 16 C16 21.28 16 26.56 16 32 C10.72 32 5.44 32 0 32 C0 37.28 0 42.56 0 48 C-15.84 48 -31.68 48 -48 48 C-48 42.72 -48 37.44 -48 32 C-37.44 32 -26.88 32 -16 32 C-16 26.72 -16 21.44 -16 16 C-10.72 16 -5.44 16 0 16 C0 10.72 0 5.44 0 0 Z " fill="#58BC49" transform="translate(304,336)"/>
<path d="M0 0 C26.4 0 52.8 0 80 0 C80 5.28 80 10.56 80 16 C85.28 16 90.56 16 96 16 C96 21.28 96 26.56 96 32 C85.44 32 74.88 32 64 32 C64 26.72 64 21.44 64 16 C42.88 16 21.76 16 0 16 C0 10.72 0 5.44 0 0 Z " fill="#58BC49" transform="translate(656,304)"/>
<path d="M0 0 C10.56 0 21.12 0 32 0 C32 5.28 32 10.56 32 16 C47.84 16 63.68 16 80 16 C80 21.28 80 26.56 80 32 C53.6 32 27.2 32 0 32 C0 21.44 0 10.88 0 0 Z " fill="#58BC49" transform="translate(512,256)"/>
<path d="M0 0 C5.28 0 10.56 0 16 0 C16 15.84 16 31.68 16 48 C21.28 48 26.56 48 32 48 C32 53.28 32 58.56 32 64 C26.72 64 21.44 64 16 64 C16 69.28 16 74.56 16 80 C10.72 80 5.44 80 0 80 C0 53.6 0 27.2 0 0 Z " fill="#58BC49" transform="translate(160,464)"/>
<path d="M0 0 C10.56 0 21.12 0 32 0 C32 10.56 32 21.12 32 32 C10.88 32 -10.24 32 -32 32 C-32 26.72 -32 21.44 -32 16 C-21.44 16 -10.88 16 0 16 C0 10.72 0 5.44 0 0 Z " fill="#58BC49" transform="translate(336,304)"/>
<path d="M0 0 C10.56 0 21.12 0 32 0 C32 5.28 32 10.56 32 16 C26.72 16 21.44 16 16 16 C16 21.28 16 26.56 16 32 C0.16 32 -15.68 32 -32 32 C-32 26.72 -32 21.44 -32 16 C-21.44 16 -10.88 16 0 16 C0 10.72 0 5.44 0 0 Z " fill="#39792F" transform="translate(192,544)"/>
<path d="M0 0 C5.28 0 10.56 0 16 0 C16 5.28 16 10.56 16 16 C26.56 16 37.12 16 48 16 C48 21.28 48 26.56 48 32 C42.72 32 37.44 32 32 32 C32 37.28 32 42.56 32 48 C26.72 48 21.44 48 16 48 C16 42.72 16 37.44 16 32 C10.72 32 5.44 32 0 32 C0 21.44 0 10.88 0 0 Z " fill="#58BC49" transform="translate(416,432)"/>
<path d="M0 0 C26.4 0 52.8 0 80 0 C80 5.28 80 10.56 80 16 C53.6 16 27.2 16 0 16 C0 10.72 0 5.44 0 0 Z " fill="#39792F" transform="translate(720,368)"/>
<path d="M0 0 C21.12 0 42.24 0 64 0 C64 5.28 64 10.56 64 16 C42.88 16 21.76 16 0 16 C0 10.72 0 5.44 0 0 Z " fill="#6DE85A" transform="translate(592,288)"/>
<path d="M0 0 C5.28 0 10.56 0 16 0 C16 15.84 16 31.68 16 48 C10.72 48 5.44 48 0 48 C0 32.16 0 16.32 0 0 Z " fill="#6DE85A" transform="translate(176,464)"/>
<path d="M0 0 C15.84 0 31.68 0 48 0 C48 5.28 48 10.56 48 16 C32.16 16 16.32 16 0 16 C0 10.72 0 5.44 0 0 Z " fill="#6DE85A" transform="translate(656,304)"/>
<path d="M0 0 C15.84 0 31.68 0 48 0 C48 5.28 48 10.56 48 16 C32.16 16 16.32 16 0 16 C0 10.72 0 5.44 0 0 Z " fill="#58BC49" transform="translate(544,288)"/>
<path d="M0 0 C15.84 0 31.68 0 48 0 C48 5.28 48 10.56 48 16 C32.16 16 16.32 16 0 16 C0 10.72 0 5.44 0 0 Z " fill="#58BC49" transform="translate(592,272)"/>
<path d="M0 0 C15.84 0 31.68 0 48 0 C48 5.28 48 10.56 48 16 C32.16 16 16.32 16 0 16 C0 10.72 0 5.44 0 0 Z " fill="#6DE85A" transform="translate(544,272)"/>
<path d="M0 0 C5.28 0 10.56 0 16 0 C16 10.56 16 21.12 16 32 C10.72 32 5.44 32 0 32 C0 21.44 0 10.88 0 0 Z " fill="#2E6327" transform="translate(144,624)"/>
<path d="M0 0 C5.28 0 10.56 0 16 0 C16 10.56 16 21.12 16 32 C10.72 32 5.44 32 0 32 C0 21.44 0 10.88 0 0 Z " fill="#6DE85A" transform="translate(192,432)"/>
<path d="M0 0 C5.28 0 10.56 0 16 0 C16 10.56 16 21.12 16 32 C10.72 32 5.44 32 0 32 C0 21.44 0 10.88 0 0 Z " fill="#4EA640" transform="translate(176,432)"/>
<path d="M0 0 C5.28 0 10.56 0 16 0 C16 10.56 16 21.12 16 32 C10.72 32 5.44 32 0 32 C0 21.44 0 10.88 0 0 Z " fill="#4EA640" transform="translate(192,400)"/>
<path d="M0 0 C10.56 0 21.12 0 32 0 C32 5.28 32 10.56 32 16 C21.44 16 10.88 16 0 16 C0 10.72 0 5.44 0 0 Z " fill="#58BC49" transform="translate(496,384)"/>
<path d="M0 0 C10.56 0 21.12 0 32 0 C32 5.28 32 10.56 32 16 C21.44 16 10.88 16 0 16 C0 10.72 0 5.44 0 0 Z " fill="#6DE85A" transform="translate(256,368)"/>
<path d="M0 0 C10.56 0 21.12 0 32 0 C32 5.28 32 10.56 32 16 C21.44 16 10.88 16 0 16 C0 10.72 0 5.44 0 0 Z " fill="#6DE85A" transform="translate(304,336)"/>
<path d="M0 0 C10.56 0 21.12 0 32 0 C32 5.28 32 10.56 32 16 C21.44 16 10.88 16 0 16 C0 10.72 0 5.44 0 0 Z " fill="#58BC49" transform="translate(624,304)"/>
<path d="M0 0 C10.56 0 21.12 0 32 0 C32 5.28 32 10.56 32 16 C21.44 16 10.88 16 0 16 C0 10.72 0 5.44 0 0 Z " fill="#6DE85A" transform="translate(512,256)"/>
<path d="M0 0 C5.28 0 10.56 0 16 0 C16 5.28 16 10.56 16 16 C10.72 16 5.44 16 0 16 C0 10.72 0 5.44 0 0 Z " fill="#438F38" transform="translate(880,656)"/>
<path d="M0 0 C5.28 0 10.56 0 16 0 C16 5.28 16 10.56 16 16 C10.72 16 5.44 16 0 16 C0 10.72 0 5.44 0 0 Z " fill="#438F38" transform="translate(896,640)"/>
<path d="M0 0 C5.28 0 10.56 0 16 0 C16 5.28 16 10.56 16 16 C10.72 16 5.44 16 0 16 C0 10.72 0 5.44 0 0 Z " fill="#438F38" transform="translate(912,608)"/>
<path d="M0 0 C5.28 0 10.56 0 16 0 C16 5.28 16 10.56 16 16 C10.72 16 5.44 16 0 16 C0 10.72 0 5.44 0 0 Z " fill="#2E6327" transform="translate(928,576)"/>
<path d="M0 0 C5.28 0 10.56 0 16 0 C16 5.28 16 10.56 16 16 C10.72 16 5.44 16 0 16 C0 10.72 0 5.44 0 0 Z " fill="#4EA640" transform="translate(160,464)"/>
<path d="M0 0 C5.28 0 10.56 0 16 0 C16 5.28 16 10.56 16 16 C10.72 16 5.44 16 0 16 C0 10.72 0 5.44 0 0 Z " fill="#58BC49" transform="translate(464,432)"/>
<path d="M0 0 C5.28 0 10.56 0 16 0 C16 5.28 16 10.56 16 16 C10.72 16 5.44 16 0 16 C0 10.72 0 5.44 0 0 Z " fill="#58BC49" transform="translate(432,416)"/>
<path d="M0 0 C5.28 0 10.56 0 16 0 C16 5.28 16 10.56 16 16 C10.72 16 5.44 16 0 16 C0 10.72 0 5.44 0 0 Z " fill="#6DE85A" transform="translate(208,416)"/>
<path d="M0 0 C5.28 0 10.56 0 16 0 C16 5.28 16 10.56 16 16 C10.72 16 5.44 16 0 16 C0 10.72 0 5.44 0 0 Z " fill="#438F38" transform="translate(896,400)"/>
<path d="M0 0 C5.28 0 10.56 0 16 0 C16 5.28 16 10.56 16 16 C10.72 16 5.44 16 0 16 C0 10.72 0 5.44 0 0 Z " fill="#58BC49" transform="translate(464,400)"/>
<path d="M0 0 C5.28 0 10.56 0 16 0 C16 5.28 16 10.56 16 16 C10.72 16 5.44 16 0 16 C0 10.72 0 5.44 0 0 Z " fill="#6DE85A" transform="translate(224,400)"/>
<path d="M0 0 C5.28 0 10.56 0 16 0 C16 5.28 16 10.56 16 16 C10.72 16 5.44 16 0 16 C0 10.72 0 5.44 0 0 Z " fill="#58BC49" transform="translate(208,400)"/>
<path d="M0 0 C5.28 0 10.56 0 16 0 C16 5.28 16 10.56 16 16 C10.72 16 5.44 16 0 16 C0 10.72 0 5.44 0 0 Z " fill="#6DE85A" transform="translate(240,384)"/>
<path d="M0 0 C5.28 0 10.56 0 16 0 C16 5.28 16 10.56 16 16 C10.72 16 5.44 16 0 16 C0 10.72 0 5.44 0 0 Z " fill="#4EA640" transform="translate(208,384)"/>
<path d="M0 0 C5.28 0 10.56 0 16 0 C16 5.28 16 10.56 16 16 C10.72 16 5.44 16 0 16 C0 10.72 0 5.44 0 0 Z " fill="#58BC49" transform="translate(288,368)"/>
<path d="M0 0 C5.28 0 10.56 0 16 0 C16 5.28 16 10.56 16 16 C10.72 16 5.44 16 0 16 C0 10.72 0 5.44 0 0 Z " fill="#4EA640" transform="translate(224,368)"/>
<path d="M0 0 C5.28 0 10.56 0 16 0 C16 5.28 16 10.56 16 16 C10.72 16 5.44 16 0 16 C0 10.72 0 5.44 0 0 Z " fill="#6DE85A" transform="translate(288,352)"/>
<path d="M0 0 C5.28 0 10.56 0 16 0 C16 5.28 16 10.56 16 16 C10.72 16 5.44 16 0 16 C0 10.72 0 5.44 0 0 Z " fill="#4EA640" transform="translate(240,352)"/>
<path d="M0 0 C5.28 0 10.56 0 16 0 C16 5.28 16 10.56 16 16 C10.72 16 5.44 16 0 16 C0 10.72 0 5.44 0 0 Z " fill="#58BC49" transform="translate(288,336)"/>
<path d="M0 0 C5.28 0 10.56 0 16 0 C16 5.28 16 10.56 16 16 C10.72 16 5.44 16 0 16 C0 10.72 0 5.44 0 0 Z " fill="#58BC49" transform="translate(656,288)"/>
<path d="M0 0 C5.28 0 10.56 0 16 0 C16 5.28 16 10.56 16 16 C10.72 16 5.44 16 0 16 C0 10.72 0 5.44 0 0 Z " fill="#58BC49" transform="translate(496,256)"/>
</svg>
